<svg xmlns="http://www.w3.org/2000/svg" xmlns:xlink="http://www.w3.org/1999/xlink" xmlns:lucid="lucid" width="3700" height="2120"><g transform="translate(-440 -80)" lucid:page-tab-id="0_0"><path d="M0 0h4866.36v2856.32H0z" fill="#fff"/><g class="lucid-layer" lucid:layer-id="eWa5vVTvmus_" display="block"><path d="M4120 1140c0 574.38-465.62 1040-1040 1040s-1040-465.62-1040-1040S2505.62 100 3080 100s1040 465.62 1040 1040z" stroke="#282728" stroke-width="4" fill="#fff" fill-opacity="0"/><path d="M1930 1048c0-4.42 3.58-8 8-8h704c4.42 0 8 3.58 8 8v144c0 4.42-3.58 8-8 8h-704c-4.42 0-8-3.58-8-8z" stroke="#0479a8" stroke-opacity="0" fill="#fff" fill-opacity="0"/><use xlink:href="#a" transform="matrix(1,0,0,1,1935,1045) translate(223.45462962962992 91.8166666666665)"/><path d="M2540 1140c0 574.38-465.62 1040-1040 1040S460 1714.38 460 1140 925.62 100 1500 100s1040 465.62 1040 1040z" stroke="#282728" stroke-width="4" fill="#fff" fill-opacity="0"/></g><g class="lucid-layer" lucid:layer-id="DXa5pJ8HhTVt" display="block"><path d="M2660 260h320v320h-320z" stroke="#000" stroke-opacity="0" stroke-width="2" fill="#0479a8"/><use xlink:href="#b" transform="matrix(1,0,0,1,2664.8,264.8) translate(89.05555555555569 133.3354166666666)"/><use xlink:href="#c" transform="matrix(1,0,0,1,2664.8,264.8) translate(59.20370370370388 197.33541666666648)"/><path d="M1600 260h320v320h-320z" stroke="#000" stroke-opacity="0" stroke-width="2" fill="#0479a8"/><use xlink:href="#d" transform="matrix(1,0,0,1,1604.8,264.8) translate(87.42592592592607 133.3354166666666)"/><use xlink:href="#c" transform="matrix(1,0,0,1,1604.8,264.8) translate(59.20370370370388 197.33541666666648)"/><path d="M3140 520h320v320h-320z" stroke="#000" stroke-opacity="0" stroke-width="2" fill="#0479a8"/><use xlink:href="#e" transform="matrix(1,0,0,1,3144.8,524.8) translate(71.1296296296298 104.17916666666659)"/><use xlink:href="#f" transform="matrix(1,0,0,1,3144.8,524.8) translate(99.27777777777789 168.17916666666648)"/><use xlink:href="#g" transform="matrix(1,0,0,1,3144.8,524.8) translate(34.1666666666669 232.17916666666636)"/><path d="M1120 520h320v320h-320z" stroke="#000" stroke-opacity="0" stroke-width="2" fill="#0479a8"/><use xlink:href="#h" transform="matrix(1,0,0,1,1124.8,524.8) translate(47.574074074074275 133.3354166666666)"/><use xlink:href="#f" transform="matrix(1,0,0,1,1124.8,524.8) translate(150.9814814814815 133.3354166666666)"/><use xlink:href="#i" transform="matrix(1,0,0,1,1124.8,524.8) translate(47.50000000000021 197.33541666666648)"/><path d="M3140 1000h320v320h-320z" stroke="#000" stroke-opacity="0" stroke-width="2" fill="#0479a8"/><use xlink:href="#j" transform="matrix(1,0,0,1,3144.7999999999997,1004.8) translate(106.68518518518529 103.76666666666677)"/><use xlink:href="#k" transform="matrix(1,0,0,1,3144.7999999999997,1004.8) translate(62.16666666666684 167.76666666666665)"/><use xlink:href="#l" transform="matrix(1,0,0,1,3144.7999999999997,1004.8) translate(6.092592592592876 231.76666666666654)"/><path d="M1120 1000h320v320h-320z" stroke="#000" stroke-opacity="0" stroke-width="2" fill="#0479a8"/><use xlink:href="#m" transform="matrix(1,0,0,1,1124.8,1004.8) translate(100.83333333333344 103.76666666666677)"/><use xlink:href="#k" transform="matrix(1,0,0,1,1124.8,1004.8) translate(62.16666666666684 167.76666666666665)"/><use xlink:href="#l" transform="matrix(1,0,0,1,1124.8,1004.8) translate(6.092592592592876 231.76666666666654)"/><path d="M1600 740h320v320h-320z" stroke="#000" stroke-opacity="0" stroke-width="2" fill="#0479a8"/><use xlink:href="#n" transform="matrix(1,0,0,1,1604.8,744.8) translate(28.388888888889124 104.17916666666659)"/><use xlink:href="#o" transform="matrix(1,0,0,1,1604.8,744.8) translate(235.3518518518517 104.17916666666659)"/><use xlink:href="#p" transform="matrix(1,0,0,1,1604.8,744.8) translate(29.64814814814839 168.17916666666648)"/><use xlink:href="#q" transform="matrix(1,0,0,1,1604.8,744.8) translate(16.388888888889152 232.17916666666636)"/><path d="M2660 740h320v320h-320z" stroke="#000" stroke-opacity="0" stroke-width="2" fill="#0479a8"/><use xlink:href="#r" transform="matrix(1,0,0,1,2664.8,744.8) translate(87.35185185185199 104.17916666666659)"/><use xlink:href="#s" transform="matrix(1,0,0,1,2664.8,744.8) translate(79.94444444444458 168.17916666666648)"/><use xlink:href="#q" transform="matrix(1,0,0,1,2664.8,744.8) translate(16.388888888889152 232.17916666666636)"/><path d="M1120 1480h320v320h-320z" stroke="#000" stroke-opacity="0" stroke-width="2" fill="#0479a8"/><g><use xlink:href="#t" transform="matrix(1,0,0,1,1124.8,1484.8) translate(19.351851851852114 103.76666666666677)"/><use xlink:href="#u" transform="matrix(1,0,0,1,1124.8,1484.8) translate(17.870370370370647 167.76666666666665)"/><use xlink:href="#v" transform="matrix(1,0,0,1,1124.8,1484.8) translate(142.1666666666667 167.76666666666665)"/><use xlink:href="#w" transform="matrix(1,0,0,1,1124.8,1484.8) translate(219.05555555555546 167.76666666666665)"/><use xlink:href="#x" transform="matrix(1,0,0,1,1124.8,1484.8) translate(9.055555555555838 231.76666666666654)"/></g><path d="M3140 1480h320v320h-320z" stroke="#000" stroke-opacity="0" stroke-width="2" fill="#0479a8"/><g><use xlink:href="#y" transform="matrix(1,0,0,1,3144.8,1484.8) translate(35.722222222222456 133.3354166666666)"/><use xlink:href="#z" transform="matrix(1,0,0,1,3144.8,1484.8) translate(189.3518518518518 133.3354166666666)"/><use xlink:href="#A" transform="matrix(1,0,0,1,3144.8,1484.8) translate(69.57407407407423 197.33541666666648)"/></g><path d="M598 1238c-43.08 0-78-34.92-78-78 0-34.46 21.12-63.53 53.9-74.18C572 984.5 702 965 754 1004c26-58.5 156-39 156 19.5 78-19.5 156 58.5 104 156 52 78 0 175.5-104 136.5-26 50.7-130 50.7-156 0-52 39-156 19.5-156-78z" stroke="#000" stroke-opacity="0" stroke-width="2" fill="#9b0000"/><g><use xlink:href="#B" transform="matrix(1,0,0,1,525,970) translate(177.70870370370378 204.93611111111102)"/></g><path d="M2660 1660h320v320h-320z" stroke="#000" stroke-opacity="0" stroke-width="2" fill="#0479a8"/><g><use xlink:href="#C" transform="matrix(1,0,0,1,2664.8,1664.8) translate(28.314814814815048 104.17916666666659)"/><use xlink:href="#D" transform="matrix(1,0,0,1,2664.8,1664.8) translate(46.01851851851872 168.17916666666648)"/><use xlink:href="#E" transform="matrix(1,0,0,1,2664.8,1664.8) translate(99.2037037037038 232.17916666666636)"/></g><path d="M1600 1220h320v320h-320z" stroke="#000" stroke-opacity="0" stroke-width="2" fill="#0479a8"/><g><use xlink:href="#F" transform="matrix(1,0,0,1,1604.8,1224.8) translate(99.27777777777789 133.3354166666666)"/><use xlink:href="#G" transform="matrix(1,0,0,1,1604.8,1224.8) translate(46.1666666666669 197.33541666666648)"/></g><path d="M2660 1220h320v320h-320z" stroke="#000" stroke-opacity="0" stroke-width="2" fill="#0479a8"/><g><use xlink:href="#H" transform="matrix(1,0,0,1,2664.8,1224.8) translate(47.42592592592611 133.3354166666666)"/><use xlink:href="#I" transform="matrix(1,0,0,1,2664.8,1224.8) translate(31.129629629629857 197.33541666666648)"/></g><path d="M1600 1700h320v320h-320z" stroke="#000" stroke-opacity="0" stroke-width="2" fill="#0479a8"/><g><use xlink:href="#J" transform="matrix(1,0,0,1,1604.8,1704.8) translate(99.27777777777789 104.17916666666659)"/><use xlink:href="#K" transform="matrix(1,0,0,1,1604.8,1704.8) translate(29.722222222222467 168.17916666666648)"/><use xlink:href="#L" transform="matrix(1,0,0,1,1604.8,1704.8) translate(106.68518518518528 232.17916666666636)"/></g><path d="M3638 1218c-43.08 0-78-34.92-78-78 0-34.46 21.12-63.53 53.9-74.18C3612 964.5 3742 945 3794 984c26-58.5 156-39 156 19.5 78-19.5 156 58.5 104 156 52 78 0 175.5-104 136.5-26 50.7-130 50.7-156 0-52 39-156 19.5-156-78z" stroke="#000" stroke-opacity="0" stroke-width="2" fill="#9b0000"/><g><use xlink:href="#M" transform="matrix(1,0,0,1,3565,950) translate(180.05438271604945 204.93611111111102)"/></g></g><defs><path fill="#0479a8" d="M197 0v-115H63V0H30v-248h33v105h134v-105h34V0h-34" id="N"/><path fill="#0479a8" d="M179-190L93 31C79 59 56 82 12 73V49c39 6 53-20 64-50L1-190h34L92-34l54-156h33" id="O"/><path fill="#0479a8" d="M115-194c53 0 69 39 70 98 0 66-23 100-70 100C84 3 66-7 56-30L54 0H23l1-261h32v101c10-23 28-34 59-34zm-8 174c40 0 45-34 45-75 0-40-5-75-45-74-42 0-51 32-51 76 0 43 10 73 51 73" id="P"/><path fill="#0479a8" d="M114-163C36-179 61-72 57 0H25l-1-190h30c1 12-1 29 2 39 6-27 23-49 58-41v29" id="Q"/><path fill="#0479a8" d="M24-231v-30h32v30H24zM24 0v-190h32V0H24" id="R"/><path fill="#0479a8" d="M85-194c31 0 48 13 60 33l-1-100h32l1 261h-30c-2-10 0-23-3-31C134-8 116 4 85 4 32 4 16-35 15-94c0-66 23-100 70-100zm9 24c-40 0-46 34-46 75 0 40 6 74 45 74 42 0 51-32 51-76 0-42-9-74-50-73" id="S"/><g id="a"><use transform="matrix(0.25370370370370315,0,0,0.25370370370370315,0,0)" xlink:href="#N"/><use transform="matrix(0.25370370370370315,0,0,0.25370370370370315,65.70925925925911,0)" xlink:href="#O"/><use transform="matrix(0.25370370370370315,0,0,0.25370370370370315,111.37592592592569,0)" xlink:href="#P"/><use transform="matrix(0.25370370370370315,0,0,0.25370370370370315,162.11666666666633,0)" xlink:href="#Q"/><use transform="matrix(0.25370370370370315,0,0,0.25370370370370315,192.307407407407,0)" xlink:href="#R"/><use transform="matrix(0.25370370370370315,0,0,0.25370370370370315,212.34999999999954,0)" xlink:href="#S"/></g><path fill="#fff" d="M185-189c-5-48-123-54-124 2 14 75 158 14 163 119 3 78-121 87-175 55-17-10-28-26-33-46l33-7c5 56 141 63 141-1 0-78-155-14-162-118-5-82 145-84 179-34 5 7 8 16 11 25" id="T"/><path fill="#fff" d="M210-169c-67 3-38 105-44 169h-31v-121c0-29-5-50-35-48C34-165 62-65 56 0H25l-1-190h30c1 10-1 24 2 32 10-44 99-50 107 0 11-21 27-35 58-36 85-2 47 119 55 194h-31v-121c0-29-5-49-35-48" id="U"/><path fill="#fff" d="M141-36C126-15 110 5 73 4 37 3 15-17 15-53c-1-64 63-63 125-63 3-35-9-54-41-54-24 1-41 7-42 31l-33-3c5-37 33-52 76-52 45 0 72 20 72 64v82c-1 20 7 32 28 27v20c-31 9-61-2-59-35zM48-53c0 20 12 33 32 33 41-3 63-29 60-74-43 2-92-5-92 41" id="V"/><path fill="#fff" d="M24 0v-261h32V0H24" id="W"/><g id="b"><use transform="matrix(0.1481481481481479,0,0,0.1481481481481479,0,0)" xlink:href="#T"/><use transform="matrix(0.1481481481481479,0,0,0.1481481481481479,35.55555555555549,0)" xlink:href="#U"/><use transform="matrix(0.1481481481481479,0,0,0.1481481481481479,79.85185185185172,0)" xlink:href="#V"/><use transform="matrix(0.1481481481481479,0,0,0.1481481481481479,109.48148148148127,0)" xlink:href="#W"/><use transform="matrix(0.1481481481481479,0,0,0.1481481481481479,121.18518518518496,0)" xlink:href="#W"/></g><path fill="#fff" d="M160-131c35 5 61 23 61 61C221 17 115-2 30 0v-248c76 3 177-17 177 60 0 33-19 50-47 57zm-97-11c50-1 110 9 110-42 0-47-63-36-110-37v79zm0 115c55-2 124 14 124-45 0-56-70-42-124-44v89" id="X"/><path fill="#fff" d="M59-47c-2 24 18 29 38 22v24C64 9 27 4 27-40v-127H5v-23h24l9-43h21v43h35v23H59v120" id="Y"/><path fill="#fff" d="M96-169c-40 0-48 33-48 73s9 75 48 75c24 0 41-14 43-38l32 2c-6 37-31 61-74 61-59 0-76-41-82-99-10-93 101-131 147-64 4 7 5 14 7 22l-32 3c-4-21-16-35-41-35" id="Z"/><path fill="#fff" d="M106-169C34-169 62-67 57 0H25v-261h32l-1 103c12-21 28-36 61-36 89 0 53 116 60 194h-32v-121c2-32-8-49-39-48" id="aa"/><path fill="#fff" d="M100-194c63 0 86 42 84 106H49c0 40 14 67 53 68 26 1 43-12 49-29l28 8c-11 28-37 45-77 45C44 4 14-33 15-96c1-61 26-98 85-98zm52 81c6-60-76-77-97-28-3 7-6 17-6 28h103" id="ab"/><path fill="#fff" d="M135-143c-3-34-86-38-87 0 15 53 115 12 119 90S17 21 10-45l28-5c4 36 97 45 98 0-10-56-113-15-118-90-4-57 82-63 122-42 12 7 21 19 24 35" id="ac"/><g id="c"><use transform="matrix(0.1481481481481479,0,0,0.1481481481481479,0,0)" xlink:href="#X"/><use transform="matrix(0.1481481481481479,0,0,0.1481481481481479,35.55555555555549,0)" xlink:href="#V"/><use transform="matrix(0.1481481481481479,0,0,0.1481481481481479,65.18518518518508,0)" xlink:href="#Y"/><use transform="matrix(0.1481481481481479,0,0,0.1481481481481479,79.99999999999986,0)" xlink:href="#Z"/><use transform="matrix(0.1481481481481479,0,0,0.1481481481481479,106.66666666666649,0)" xlink:href="#aa"/><use transform="matrix(0.1481481481481479,0,0,0.1481481481481479,136.29629629629608,0)" xlink:href="#ab"/><use transform="matrix(0.1481481481481479,0,0,0.1481481481481479,165.92592592592564,0)" xlink:href="#ac"/></g><path fill="#fff" d="M30 0v-248h33v221h125V0H30" id="ad"/><path fill="#fff" d="M114-163C36-179 61-72 57 0H25l-1-190h30c1 12-1 29 2 39 6-27 23-49 58-41v29" id="ae"/><path fill="#fff" d="M177-190C167-65 218 103 67 71c-23-6-38-20-44-43l32-5c15 47 100 32 89-28v-30C133-14 115 1 83 1 29 1 15-40 15-95c0-56 16-97 71-98 29-1 48 16 59 35 1-10 0-23 2-32h30zM94-22c36 0 50-32 50-73 0-42-14-75-50-75-39 0-46 34-46 75s6 73 46 73" id="af"/><g id="d"><use transform="matrix(0.1481481481481479,0,0,0.1481481481481479,0,0)" xlink:href="#ad"/><use transform="matrix(0.1481481481481479,0,0,0.1481481481481479,29.629629629629576,0)" xlink:href="#V"/><use transform="matrix(0.1481481481481479,0,0,0.1481481481481479,59.25925925925915,0)" xlink:href="#ae"/><use transform="matrix(0.1481481481481479,0,0,0.1481481481481479,76.88888888888874,0)" xlink:href="#af"/><use transform="matrix(0.1481481481481479,0,0,0.1481481481481479,106.51851851851832,0)" xlink:href="#ab"/></g><path fill="#fff" d="M190 0L58-211 59 0H30v-248h39L202-35l-2-213h31V0h-41" id="ag"/><path fill="#fff" d="M85-194c31 0 48 13 60 33l-1-100h32l1 261h-30c-2-10 0-23-3-31C134-8 116 4 85 4 32 4 16-35 15-94c0-66 23-100 70-100zm9 24c-40 0-46 34-46 75 0 40 6 74 45 74 42 0 51-32 51-76 0-42-9-74-50-73" id="ah"/><g id="e"><use transform="matrix(0.1481481481481479,0,0,0.1481481481481479,0,0)" xlink:href="#ag"/><use transform="matrix(0.1481481481481479,0,0,0.1481481481481479,38.3703703703703,0)" xlink:href="#ab"/><use transform="matrix(0.1481481481481479,0,0,0.1481481481481479,67.99999999999989,0)" xlink:href="#ac"/><use transform="matrix(0.1481481481481479,0,0,0.1481481481481479,94.66666666666652,0)" xlink:href="#Y"/><use transform="matrix(0.1481481481481479,0,0,0.1481481481481479,109.4814814814813,0)" xlink:href="#ab"/><use transform="matrix(0.1481481481481479,0,0,0.1481481481481479,139.11111111111086,0)" xlink:href="#ah"/></g><path fill="#fff" d="M30-248c118-7 216 8 213 122C240-48 200 0 122 0H30v-248zM63-27c89 8 146-16 146-99s-60-101-146-95v194" id="ai"/><g id="f"><use transform="matrix(0.1481481481481479,0,0,0.1481481481481479,0,0)" xlink:href="#ai"/><use transform="matrix(0.1481481481481479,0,0,0.1481481481481479,38.3703703703703,0)" xlink:href="#V"/><use transform="matrix(0.1481481481481479,0,0,0.1481481481481479,67.99999999999989,0)" xlink:href="#Y"/><use transform="matrix(0.1481481481481479,0,0,0.1481481481481479,82.81481481481467,0)" xlink:href="#V"/></g><path fill="#fff" d="M84 4C-5 8 30-112 23-190h32v120c0 31 7 50 39 49 72-2 45-101 50-169h31l1 190h-30c-1-10 1-25-2-33-11 22-28 36-60 37" id="aj"/><g id="g"><use transform="matrix(0.1481481481481479,0,0,0.1481481481481479,0,0)" xlink:href="#T"/><use transform="matrix(0.1481481481481479,0,0,0.1481481481481479,35.55555555555549,0)" xlink:href="#Y"/><use transform="matrix(0.1481481481481479,0,0,0.1481481481481479,50.37037037037028,0)" xlink:href="#ae"/><use transform="matrix(0.1481481481481479,0,0,0.1481481481481479,67.99999999999989,0)" xlink:href="#aj"/><use transform="matrix(0.1481481481481479,0,0,0.1481481481481479,97.62962962962946,0)" xlink:href="#Z"/><use transform="matrix(0.1481481481481479,0,0,0.1481481481481479,124.29629629629608,0)" xlink:href="#Y"/><use transform="matrix(0.1481481481481479,0,0,0.1481481481481479,139.11111111111086,0)" xlink:href="#aj"/><use transform="matrix(0.1481481481481479,0,0,0.1481481481481479,168.74074074074042,0)" xlink:href="#ae"/><use transform="matrix(0.1481481481481479,0,0,0.1481481481481479,186.37037037037,0)" xlink:href="#ab"/><use transform="matrix(0.1481481481481479,0,0,0.1481481481481479,215.9999999999996,0)" xlink:href="#ac"/></g><path fill="#fff" d="M63-220v92h138v28H63V0H30v-248h175v28H63" id="ak"/><g id="h"><use transform="matrix(0.1481481481481479,0,0,0.1481481481481479,0,0)" xlink:href="#ak"/><use transform="matrix(0.1481481481481479,0,0,0.1481481481481479,32.444444444444386,0)" xlink:href="#W"/><use transform="matrix(0.1481481481481479,0,0,0.1481481481481479,44.148148148148074,0)" xlink:href="#V"/><use transform="matrix(0.1481481481481479,0,0,0.1481481481481479,73.77777777777764,0)" xlink:href="#Y"/></g><g id="i"><use transform="matrix(0.1481481481481479,0,0,0.1481481481481479,0,0)" xlink:href="#T"/><use transform="matrix(0.1481481481481479,0,0,0.1481481481481479,35.55555555555549,0)" xlink:href="#Y"/><use transform="matrix(0.1481481481481479,0,0,0.1481481481481479,50.37037037037028,0)" xlink:href="#ae"/><use transform="matrix(0.1481481481481479,0,0,0.1481481481481479,67.99999999999989,0)" xlink:href="#aj"/><use transform="matrix(0.1481481481481479,0,0,0.1481481481481479,97.62962962962946,0)" xlink:href="#Z"/><use transform="matrix(0.1481481481481479,0,0,0.1481481481481479,124.29629629629608,0)" xlink:href="#Y"/><use transform="matrix(0.1481481481481479,0,0,0.1481481481481479,139.11111111111086,0)" xlink:href="#aj"/><use transform="matrix(0.1481481481481479,0,0,0.1481481481481479,168.74074074074042,0)" xlink:href="#ae"/><use transform="matrix(0.1481481481481479,0,0,0.1481481481481479,186.37037037037,0)" xlink:href="#ab"/></g><path fill="#fff" d="M100-194c62-1 85 37 85 99 1 63-27 99-86 99S16-35 15-95c0-66 28-99 85-99zM99-20c44 1 53-31 53-75 0-43-8-75-51-75s-53 32-53 75 10 74 51 75" id="al"/><path fill="#fff" d="M206 0h-36l-40-164L89 0H53L-1-190h32L70-26l43-164h34l41 164 42-164h31" id="am"/><g id="j"><use transform="matrix(0.1481481481481479,0,0,0.1481481481481479,0,0)" xlink:href="#ad"/><use transform="matrix(0.1481481481481479,0,0,0.1481481481481479,29.629629629629576,0)" xlink:href="#al"/><use transform="matrix(0.1481481481481479,0,0,0.1481481481481479,59.25925925925915,0)" xlink:href="#am"/></g><path fill="#fff" d="M117-194c89-4 53 116 60 194h-32v-121c0-31-8-49-39-48C34-167 62-67 57 0H25l-1-190h30c1 10-1 24 2 32 11-22 29-35 61-36" id="an"/><path fill="#fff" d="M179-190L93 31C79 59 56 82 12 73V49c39 6 53-20 64-50L1-190h34L92-34l54-156h33" id="ao"/><g id="k"><use transform="matrix(0.1481481481481479,0,0,0.1481481481481479,0,0)" xlink:href="#ad"/><use transform="matrix(0.1481481481481479,0,0,0.1481481481481479,29.629629629629576,0)" xlink:href="#V"/><use transform="matrix(0.1481481481481479,0,0,0.1481481481481479,59.25925925925915,0)" xlink:href="#Y"/><use transform="matrix(0.1481481481481479,0,0,0.1481481481481479,74.07407407407393,0)" xlink:href="#ab"/><use transform="matrix(0.1481481481481479,0,0,0.1481481481481479,103.70370370370351,0)" xlink:href="#an"/><use transform="matrix(0.1481481481481479,0,0,0.1481481481481479,133.3333333333331,0)" xlink:href="#Z"/><use transform="matrix(0.1481481481481479,0,0,0.1481481481481479,159.99999999999972,0)" xlink:href="#ao"/></g><path fill="#fff" d="M30 0v-248h187v28H63v79h144v27H63v87h162V0H30" id="ap"/><path fill="#fff" d="M108 0H70L1-190h34L89-25l56-165h34" id="aq"/><path fill="#fff" d="M24-231v-30h32v30H24zM24 0v-190h32V0H24" id="ar"/><g id="l"><use transform="matrix(0.1481481481481479,0,0,0.1481481481481479,0,0)" xlink:href="#ap"/><use transform="matrix(0.1481481481481479,0,0,0.1481481481481479,35.55555555555549,0)" xlink:href="#an"/><use transform="matrix(0.1481481481481479,0,0,0.1481481481481479,65.18518518518508,0)" xlink:href="#aq"/><use transform="matrix(0.1481481481481479,0,0,0.1481481481481479,91.8518518518517,0)" xlink:href="#ar"/><use transform="matrix(0.1481481481481479,0,0,0.1481481481481479,103.55555555555539,0)" xlink:href="#ae"/><use transform="matrix(0.1481481481481479,0,0,0.1481481481481479,121.18518518518499,0)" xlink:href="#al"/><use transform="matrix(0.1481481481481479,0,0,0.1481481481481479,150.81481481481455,0)" xlink:href="#an"/><use transform="matrix(0.1481481481481479,0,0,0.1481481481481479,180.44444444444412,0)" xlink:href="#U"/><use transform="matrix(0.1481481481481479,0,0,0.1481481481481479,224.74074074074034,0)" xlink:href="#ab"/><use transform="matrix(0.1481481481481479,0,0,0.1481481481481479,254.37037037036993,0)" xlink:href="#an"/><use transform="matrix(0.1481481481481479,0,0,0.1481481481481479,283.9999999999995,0)" xlink:href="#Y"/></g><path fill="#fff" d="M197 0v-115H63V0H30v-248h33v105h134v-105h34V0h-34" id="as"/><g id="m"><use transform="matrix(0.1481481481481479,0,0,0.1481481481481479,0,0)" xlink:href="#as"/><use transform="matrix(0.1481481481481479,0,0,0.1481481481481479,38.3703703703703,0)" xlink:href="#ar"/><use transform="matrix(0.1481481481481479,0,0,0.1481481481481479,50.074074074073984,0)" xlink:href="#af"/><use transform="matrix(0.1481481481481479,0,0,0.1481481481481479,79.70370370370355,0)" xlink:href="#aa"/></g><path fill="#fff" d="M30-248c87 1 191-15 191 75 0 78-77 80-158 76V0H30v-248zm33 125c57 0 124 11 124-50 0-59-68-47-124-48v98" id="at"/><g id="n"><use transform="matrix(0.1481481481481479,0,0,0.1481481481481479,0,0)" xlink:href="#at"/><use transform="matrix(0.1481481481481479,0,0,0.1481481481481479,35.55555555555549,0)" xlink:href="#ab"/><use transform="matrix(0.1481481481481479,0,0,0.1481481481481479,65.18518518518508,0)" xlink:href="#ae"/><use transform="matrix(0.1481481481481479,0,0,0.1481481481481479,82.81481481481467,0)" xlink:href="#ar"/><use transform="matrix(0.1481481481481479,0,0,0.1481481481481479,94.51851851851835,0)" xlink:href="#al"/><use transform="matrix(0.1481481481481479,0,0,0.1481481481481479,124.14814814814792,0)" xlink:href="#ah"/><use transform="matrix(0.1481481481481479,0,0,0.1481481481481479,153.7777777777775,0)" xlink:href="#ar"/><use transform="matrix(0.1481481481481479,0,0,0.1481481481481479,165.48148148148118,0)" xlink:href="#Z"/></g><g id="o"><use transform="matrix(0.1481481481481479,0,0,0.1481481481481479,0,0)" xlink:href="#al"/><use transform="matrix(0.1481481481481479,0,0,0.1481481481481479,29.629629629629576,0)" xlink:href="#ae"/></g><g id="p"><use transform="matrix(0.1481481481481479,0,0,0.1481481481481479,0,0)" xlink:href="#T"/><use transform="matrix(0.1481481481481479,0,0,0.1481481481481479,35.55555555555549,0)" xlink:href="#Z"/><use transform="matrix(0.1481481481481479,0,0,0.1481481481481479,62.222222222222115,0)" xlink:href="#aa"/><use transform="matrix(0.1481481481481479,0,0,0.1481481481481479,91.85185185185169,0)" xlink:href="#ab"/><use transform="matrix(0.1481481481481479,0,0,0.1481481481481479,121.48148148148127,0)" xlink:href="#ah"/><use transform="matrix(0.1481481481481479,0,0,0.1481481481481479,151.11111111111086,0)" xlink:href="#aj"/><use transform="matrix(0.1481481481481479,0,0,0.1481481481481479,180.74074074074042,0)" xlink:href="#W"/><use transform="matrix(0.1481481481481479,0,0,0.1481481481481479,192.44444444444412,0)" xlink:href="#ab"/><use transform="matrix(0.1481481481481479,0,0,0.1481481481481479,222.07407407407368,0)" xlink:href="#ah"/></g><path fill="#fff" d="M33 0v-248h34V0H33" id="au"/><g id="q"><use transform="matrix(0.1481481481481479,0,0,0.1481481481481479,0,0)" xlink:href="#au"/><use transform="matrix(0.1481481481481479,0,0,0.1481481481481479,14.814814814814788,0)" xlink:href="#an"/><use transform="matrix(0.1481481481481479,0,0,0.1481481481481479,44.444444444444365,0)" xlink:href="#Y"/><use transform="matrix(0.1481481481481479,0,0,0.1481481481481479,59.25925925925915,0)" xlink:href="#ab"/><use transform="matrix(0.1481481481481479,0,0,0.1481481481481479,88.88888888888873,0)" xlink:href="#af"/><use transform="matrix(0.1481481481481479,0,0,0.1481481481481479,118.5185185185183,0)" xlink:href="#ae"/><use transform="matrix(0.1481481481481479,0,0,0.1481481481481479,136.1481481481479,0)" xlink:href="#V"/><use transform="matrix(0.1481481481481479,0,0,0.1481481481481479,165.7777777777775,0)" xlink:href="#Y"/><use transform="matrix(0.1481481481481479,0,0,0.1481481481481479,180.59259259259227,0)" xlink:href="#ar"/><use transform="matrix(0.1481481481481479,0,0,0.1481481481481479,192.29629629629596,0)" xlink:href="#al"/><use transform="matrix(0.1481481481481479,0,0,0.1481481481481479,221.92592592592553,0)" xlink:href="#an"/><use transform="matrix(0.1481481481481479,0,0,0.1481481481481479,251.5555555555551,0)" xlink:href="#ac"/></g><g id="r"><use transform="matrix(0.1481481481481479,0,0,0.1481481481481479,0,0)" xlink:href="#ap"/><use transform="matrix(0.1481481481481479,0,0,0.1481481481481479,35.55555555555549,0)" xlink:href="#aq"/><use transform="matrix(0.1481481481481479,0,0,0.1481481481481479,62.222222222222115,0)" xlink:href="#ab"/><use transform="matrix(0.1481481481481479,0,0,0.1481481481481479,91.85185185185169,0)" xlink:href="#an"/><use transform="matrix(0.1481481481481479,0,0,0.1481481481481479,121.48148148148127,0)" xlink:href="#Y"/></g><g id="s"><use transform="matrix(0.1481481481481479,0,0,0.1481481481481479,0,0)" xlink:href="#X"/><use transform="matrix(0.1481481481481479,0,0,0.1481481481481479,35.55555555555549,0)" xlink:href="#V"/><use transform="matrix(0.1481481481481479,0,0,0.1481481481481479,65.18518518518508,0)" xlink:href="#ac"/><use transform="matrix(0.1481481481481479,0,0,0.1481481481481479,91.8518518518517,0)" xlink:href="#ab"/><use transform="matrix(0.1481481481481479,0,0,0.1481481481481479,121.48148148148128,0)" xlink:href="#ah"/></g><path fill="#fff" d="M212-179c-10-28-35-45-73-45-59 0-87 40-87 99 0 60 29 101 89 101 43 0 62-24 78-52l27 14C228-24 195 4 139 4 59 4 22-46 18-125c-6-104 99-153 187-111 19 9 31 26 39 46" id="av"/><g id="t"><use transform="matrix(0.1481481481481479,0,0,0.1481481481481479,0,0)" xlink:href="#av"/><use transform="matrix(0.1481481481481479,0,0,0.1481481481481479,38.3703703703703,0)" xlink:href="#al"/><use transform="matrix(0.1481481481481479,0,0,0.1481481481481479,67.99999999999989,0)" xlink:href="#an"/><use transform="matrix(0.1481481481481479,0,0,0.1481481481481479,97.62962962962946,0)" xlink:href="#an"/><use transform="matrix(0.1481481481481479,0,0,0.1481481481481479,127.25925925925904,0)" xlink:href="#ab"/><use transform="matrix(0.1481481481481479,0,0,0.1481481481481479,156.8888888888886,0)" xlink:href="#Z"/><use transform="matrix(0.1481481481481479,0,0,0.1481481481481479,183.55555555555526,0)" xlink:href="#Y"/><use transform="matrix(0.1481481481481479,0,0,0.1481481481481479,198.37037037037,0)" xlink:href="#al"/><use transform="matrix(0.1481481481481479,0,0,0.1481481481481479,227.9999999999996,0)" xlink:href="#ae"/><use transform="matrix(0.1481481481481479,0,0,0.1481481481481479,245.6296296296292,0)" xlink:href="#ac"/></g><path fill="#fff" d="M141 0L90-78 38 0H4l68-98-65-92h35l48 74 47-74h35l-64 92 68 98h-35" id="aw"/><g id="u"><use transform="matrix(0.1481481481481479,0,0,0.1481481481481479,0,0)" xlink:href="#ab"/><use transform="matrix(0.1481481481481479,0,0,0.1481481481481479,29.629629629629576,0)" xlink:href="#aw"/><use transform="matrix(0.1481481481481479,0,0,0.1481481481481479,56.2962962962962,0)" xlink:href="#ar"/><use transform="matrix(0.1481481481481479,0,0,0.1481481481481479,67.99999999999989,0)" xlink:href="#ac"/><use transform="matrix(0.1481481481481479,0,0,0.1481481481481479,94.66666666666652,0)" xlink:href="#Y"/></g><path fill="#fff" d="M101-234c-31-9-42 10-38 44h38v23H63V0H32v-167H5v-23h27c-7-52 17-82 69-68v24" id="ax"/><g id="v"><use transform="matrix(0.1481481481481479,0,0,0.1481481481481479,0,0)" xlink:href="#ax"/><use transform="matrix(0.1481481481481479,0,0,0.1481481481481479,14.814814814814788,0)" xlink:href="#al"/><use transform="matrix(0.1481481481481479,0,0,0.1481481481481479,44.444444444444365,0)" xlink:href="#ae"/></g><g id="w"><use transform="matrix(0.1481481481481479,0,0,0.1481481481481479,0,0)" xlink:href="#Y"/><use transform="matrix(0.1481481481481479,0,0,0.1481481481481479,14.814814814814788,0)" xlink:href="#aa"/><use transform="matrix(0.1481481481481479,0,0,0.1481481481481479,44.444444444444365,0)" xlink:href="#ab"/></g><g id="x"><use transform="matrix(0.1481481481481479,0,0,0.1481481481481479,0,0)" xlink:href="#ab"/><use transform="matrix(0.1481481481481479,0,0,0.1481481481481479,29.629629629629576,0)" xlink:href="#an"/><use transform="matrix(0.1481481481481479,0,0,0.1481481481481479,59.25925925925915,0)" xlink:href="#aq"/><use transform="matrix(0.1481481481481479,0,0,0.1481481481481479,85.92592592592578,0)" xlink:href="#ar"/><use transform="matrix(0.1481481481481479,0,0,0.1481481481481479,97.62962962962946,0)" xlink:href="#ae"/><use transform="matrix(0.1481481481481479,0,0,0.1481481481481479,115.25925925925908,0)" xlink:href="#al"/><use transform="matrix(0.1481481481481479,0,0,0.1481481481481479,144.88888888888863,0)" xlink:href="#an"/><use transform="matrix(0.1481481481481479,0,0,0.1481481481481479,174.5185185185182,0)" xlink:href="#U"/><use transform="matrix(0.1481481481481479,0,0,0.1481481481481479,218.8148148148144,0)" xlink:href="#ab"/><use transform="matrix(0.1481481481481479,0,0,0.1481481481481479,248.444444444444,0)" xlink:href="#an"/><use transform="matrix(0.1481481481481479,0,0,0.1481481481481479,278.07407407407356,0)" xlink:href="#Y"/></g><g id="y"><use transform="matrix(0.1481481481481479,0,0,0.1481481481481479,0,0)" xlink:href="#ai"/><use transform="matrix(0.1481481481481479,0,0,0.1481481481481479,38.3703703703703,0)" xlink:href="#ar"/><use transform="matrix(0.1481481481481479,0,0,0.1481481481481479,50.074074074073984,0)" xlink:href="#ae"/><use transform="matrix(0.1481481481481479,0,0,0.1481481481481479,67.70370370370358,0)" xlink:href="#ab"/><use transform="matrix(0.1481481481481479,0,0,0.1481481481481479,97.33333333333316,0)" xlink:href="#Z"/><use transform="matrix(0.1481481481481479,0,0,0.1481481481481479,123.99999999999977,0)" xlink:href="#Y"/></g><path fill="#fff" d="M205 0l-28-72H64L36 0H1l101-248h38L239 0h-34zm-38-99l-47-123c-12 45-31 82-46 123h93" id="ay"/><g id="z"><use transform="matrix(0.1481481481481479,0,0,0.1481481481481479,0,0)" xlink:href="#ay"/><use transform="matrix(0.1481481481481479,0,0,0.1481481481481479,35.55555555555549,0)" xlink:href="#at"/><use transform="matrix(0.1481481481481479,0,0,0.1481481481481479,71.11111111111099,0)" xlink:href="#au"/></g><g id="A"><use transform="matrix(0.1481481481481479,0,0,0.1481481481481479,0,0)" xlink:href="#ay"/><use transform="matrix(0.1481481481481479,0,0,0.1481481481481479,35.55555555555549,0)" xlink:href="#Z"/><use transform="matrix(0.1481481481481479,0,0,0.1481481481481479,62.222222222222115,0)" xlink:href="#Z"/><use transform="matrix(0.1481481481481479,0,0,0.1481481481481479,88.88888888888876,0)" xlink:href="#ab"/><use transform="matrix(0.1481481481481479,0,0,0.1481481481481479,118.5185185185183,0)" xlink:href="#ac"/><use transform="matrix(0.1481481481481479,0,0,0.1481481481481479,145.18518518518493,0)" xlink:href="#ac"/></g><path fill="#f7f7f7" d="M212-179c-10-28-35-45-73-45-59 0-87 40-87 99 0 60 29 101 89 101 43 0 62-24 78-52l27 14C228-24 195 4 139 4 59 4 22-46 18-125c-6-104 99-153 187-111 19 9 31 26 39 46" id="az"/><path fill="#f7f7f7" d="M30-248c118-7 216 8 213 122C240-48 200 0 122 0H30v-248zM63-27c89 8 146-16 146-99s-60-101-146-95v194" id="aA"/><path fill="#f7f7f7" d="M33 0v-248h34V0H33" id="aB"/><g id="B"><use transform="matrix(0.24691358024691334,0,0,0.24691358024691334,0,0)" xlink:href="#az"/><use transform="matrix(0.24691358024691334,0,0,0.24691358024691334,63.95061728395056,0)" xlink:href="#aA"/><use transform="matrix(0.24691358024691334,0,0,0.24691358024691334,127.90123456790111,0)" xlink:href="#aB"/></g><path fill="#fff" d="M115-194c55 1 70 41 70 98S169 2 115 4C84 4 66-9 55-30l1 105H24l-1-265h31l2 30c10-21 28-34 59-34zm-8 174c40 0 45-34 45-75s-6-73-45-74c-42 0-51 32-51 76 0 43 10 73 51 73" id="aC"/><g id="C"><use transform="matrix(0.1481481481481479,0,0,0.1481481481481479,0,0)" xlink:href="#av"/><use transform="matrix(0.1481481481481479,0,0,0.1481481481481479,38.3703703703703,0)" xlink:href="#al"/><use transform="matrix(0.1481481481481479,0,0,0.1481481481481479,67.99999999999989,0)" xlink:href="#U"/><use transform="matrix(0.1481481481481479,0,0,0.1481481481481479,112.2962962962961,0)" xlink:href="#aC"/><use transform="matrix(0.1481481481481479,0,0,0.1481481481481479,141.9259259259257,0)" xlink:href="#al"/><use transform="matrix(0.1481481481481479,0,0,0.1481481481481479,171.55555555555526,0)" xlink:href="#ac"/><use transform="matrix(0.1481481481481479,0,0,0.1481481481481479,198.2222222222219,0)" xlink:href="#ar"/><use transform="matrix(0.1481481481481479,0,0,0.1481481481481479,209.92592592592558,0)" xlink:href="#Y"/><use transform="matrix(0.1481481481481479,0,0,0.1481481481481479,224.74074074074034,0)" xlink:href="#ab"/></g><path fill="#fff" d="M68-38c1 34 0 65-14 84H32c9-13 17-26 17-46H33v-38h35" id="aD"/><g id="D"><use transform="matrix(0.1481481481481479,0,0,0.1481481481481479,0,0)" xlink:href="#T"/><use transform="matrix(0.1481481481481479,0,0,0.1481481481481479,35.55555555555549,0)" xlink:href="#ab"/><use transform="matrix(0.1481481481481479,0,0,0.1481481481481479,65.18518518518508,0)" xlink:href="#ae"/><use transform="matrix(0.1481481481481479,0,0,0.1481481481481479,82.81481481481467,0)" xlink:href="#aq"/><use transform="matrix(0.1481481481481479,0,0,0.1481481481481479,109.4814814814813,0)" xlink:href="#ar"/><use transform="matrix(0.1481481481481479,0,0,0.1481481481481479,121.18518518518498,0)" xlink:href="#Z"/><use transform="matrix(0.1481481481481479,0,0,0.1481481481481479,147.8518518518516,0)" xlink:href="#ab"/><use transform="matrix(0.1481481481481479,0,0,0.1481481481481479,177.48148148148118,0)" xlink:href="#ac"/><use transform="matrix(0.1481481481481479,0,0,0.1481481481481479,204.14814814814784,0)" xlink:href="#aD"/></g><g id="E"><use transform="matrix(0.1481481481481479,0,0,0.1481481481481479,0,0)" xlink:href="#ay"/><use transform="matrix(0.1481481481481479,0,0,0.1481481481481479,35.55555555555549,0)" xlink:href="#at"/><use transform="matrix(0.1481481481481479,0,0,0.1481481481481479,71.11111111111099,0)" xlink:href="#au"/><use transform="matrix(0.1481481481481479,0,0,0.1481481481481479,85.92592592592578,0)" xlink:href="#ac"/></g><g id="F"><use transform="matrix(0.1481481481481479,0,0,0.1481481481481479,0,0)" xlink:href="#ai"/><use transform="matrix(0.1481481481481479,0,0,0.1481481481481479,38.3703703703703,0)" xlink:href="#V"/><use transform="matrix(0.1481481481481479,0,0,0.1481481481481479,67.99999999999989,0)" xlink:href="#Y"/><use transform="matrix(0.1481481481481479,0,0,0.1481481481481479,82.81481481481467,0)" xlink:href="#V"/></g><path fill="#fff" d="M240 0l2-218c-23 76-54 145-80 218h-23L58-218 59 0H30v-248h44l77 211c21-75 51-140 76-211h43V0h-30" id="aE"/><g id="G"><use transform="matrix(0.1481481481481479,0,0,0.1481481481481479,0,0)" xlink:href="#aE"/><use transform="matrix(0.1481481481481479,0,0,0.1481481481481479,44.29629629629622,0)" xlink:href="#ar"/><use transform="matrix(0.1481481481481479,0,0,0.1481481481481479,55.9999999999999,0)" xlink:href="#af"/><use transform="matrix(0.1481481481481479,0,0,0.1481481481481479,85.62962962962948,0)" xlink:href="#ae"/><use transform="matrix(0.1481481481481479,0,0,0.1481481481481479,103.25925925925907,0)" xlink:href="#V"/><use transform="matrix(0.1481481481481479,0,0,0.1481481481481479,132.88888888888863,0)" xlink:href="#Y"/><use transform="matrix(0.1481481481481479,0,0,0.1481481481481479,147.7037037037034,0)" xlink:href="#ar"/><use transform="matrix(0.1481481481481479,0,0,0.1481481481481479,159.4074074074071,0)" xlink:href="#al"/><use transform="matrix(0.1481481481481479,0,0,0.1481481481481479,189.03703703703667,0)" xlink:href="#an"/></g><g id="H"><use transform="matrix(0.1481481481481479,0,0,0.1481481481481479,0,0)" xlink:href="#X"/><use transform="matrix(0.1481481481481479,0,0,0.1481481481481479,35.55555555555549,0)" xlink:href="#aj"/><use transform="matrix(0.1481481481481479,0,0,0.1481481481481479,65.18518518518508,0)" xlink:href="#ac"/><use transform="matrix(0.1481481481481479,0,0,0.1481481481481479,91.8518518518517,0)" xlink:href="#ar"/><use transform="matrix(0.1481481481481479,0,0,0.1481481481481479,103.55555555555539,0)" xlink:href="#an"/><use transform="matrix(0.1481481481481479,0,0,0.1481481481481479,133.18518518518496,0)" xlink:href="#ab"/><use transform="matrix(0.1481481481481479,0,0,0.1481481481481479,162.81481481481455,0)" xlink:href="#ac"/><use transform="matrix(0.1481481481481479,0,0,0.1481481481481479,189.48148148148118,0)" xlink:href="#ac"/></g><g id="I"><use transform="matrix(0.1481481481481479,0,0,0.1481481481481479,0,0)" xlink:href="#at"/><use transform="matrix(0.1481481481481479,0,0,0.1481481481481479,35.55555555555549,0)" xlink:href="#ae"/><use transform="matrix(0.1481481481481479,0,0,0.1481481481481479,53.18518518518509,0)" xlink:href="#al"/><use transform="matrix(0.1481481481481479,0,0,0.1481481481481479,82.81481481481467,0)" xlink:href="#Z"/><use transform="matrix(0.1481481481481479,0,0,0.1481481481481479,109.4814814814813,0)" xlink:href="#ab"/><use transform="matrix(0.1481481481481479,0,0,0.1481481481481479,139.11111111111086,0)" xlink:href="#ac"/><use transform="matrix(0.1481481481481479,0,0,0.1481481481481479,165.7777777777775,0)" xlink:href="#ac"/><use transform="matrix(0.1481481481481479,0,0,0.1481481481481479,192.44444444444412,0)" xlink:href="#ab"/><use transform="matrix(0.1481481481481479,0,0,0.1481481481481479,222.07407407407368,0)" xlink:href="#ac"/></g><g id="J"><use transform="matrix(0.1481481481481479,0,0,0.1481481481481479,0,0)" xlink:href="#ai"/><use transform="matrix(0.1481481481481479,0,0,0.1481481481481479,38.3703703703703,0)" xlink:href="#V"/><use transform="matrix(0.1481481481481479,0,0,0.1481481481481479,67.99999999999989,0)" xlink:href="#Y"/><use transform="matrix(0.1481481481481479,0,0,0.1481481481481479,82.81481481481467,0)" xlink:href="#V"/></g><g id="K"><use transform="matrix(0.1481481481481479,0,0,0.1481481481481479,0,0)" xlink:href="#au"/><use transform="matrix(0.1481481481481479,0,0,0.1481481481481479,14.814814814814788,0)" xlink:href="#an"/><use transform="matrix(0.1481481481481479,0,0,0.1481481481481479,44.444444444444365,0)" xlink:href="#Y"/><use transform="matrix(0.1481481481481479,0,0,0.1481481481481479,59.25925925925915,0)" xlink:href="#ab"/><use transform="matrix(0.1481481481481479,0,0,0.1481481481481479,88.88888888888873,0)" xlink:href="#af"/><use transform="matrix(0.1481481481481479,0,0,0.1481481481481479,118.5185185185183,0)" xlink:href="#ae"/><use transform="matrix(0.1481481481481479,0,0,0.1481481481481479,136.1481481481479,0)" xlink:href="#V"/><use transform="matrix(0.1481481481481479,0,0,0.1481481481481479,165.7777777777775,0)" xlink:href="#Y"/><use transform="matrix(0.1481481481481479,0,0,0.1481481481481479,180.59259259259227,0)" xlink:href="#ar"/><use transform="matrix(0.1481481481481479,0,0,0.1481481481481479,192.29629629629596,0)" xlink:href="#al"/><use transform="matrix(0.1481481481481479,0,0,0.1481481481481479,221.92592592592553,0)" xlink:href="#an"/></g><path fill="#fff" d="M115-194c53 0 69 39 70 98 0 66-23 100-70 100C84 3 66-7 56-30L54 0H23l1-261h32v101c10-23 28-34 59-34zm-8 174c40 0 45-34 45-75 0-40-5-75-45-74-42 0-51 32-51 76 0 43 10 73 51 73" id="aF"/><g id="L"><use transform="matrix(0.1481481481481479,0,0,0.1481481481481479,0,0)" xlink:href="#as"/><use transform="matrix(0.1481481481481479,0,0,0.1481481481481479,38.3703703703703,0)" xlink:href="#aj"/><use transform="matrix(0.1481481481481479,0,0,0.1481481481481479,67.99999999999989,0)" xlink:href="#aF"/></g><path fill="#f7f7f7" d="M205 0l-28-72H64L36 0H1l101-248h38L239 0h-34zm-38-99l-47-123c-12 45-31 82-46 123h93" id="aG"/><g id="M"><use transform="matrix(0.24691358024691334,0,0,0.24691358024691334,0,0)" xlink:href="#az"/><use transform="matrix(0.24691358024691334,0,0,0.24691358024691334,63.95061728395056,0)" xlink:href="#aG"/><use transform="matrix(0.24691358024691334,0,0,0.24691358024691334,123.20987654320976,0)" xlink:href="#aB"/></g></defs></g></svg>